<?xml version="1.0" encoding="UTF-8" standalone="no"?>
<!-- Generator: Adobe Illustrator 15.0.2, SVG Export Plug-In . SVG Version: 6.00 Build 0)  -->

<svg
   version="1.1"
   id="Layer_1"
   x="0px"
   y="0px"
   width="79.598999"
   height="90.365997"
   viewBox="-61.75 -24.158 79.598999 90.365997"
   enable-background="new -61.75 -24.158 300 95"
   xml:space="preserve"
   sodipodi:docname="logo.svg"
   inkscape:version="1.2.2 (b0a8486541, 2022-12-01, custom)"
   xmlns:inkscape="http://www.inkscape.org/namespaces/inkscape"
   xmlns:sodipodi="http://sodipodi.sourceforge.net/DTD/sodipodi-0.dtd"
   xmlns="http://www.w3.org/2000/svg"
   xmlns:svg="http://www.w3.org/2000/svg"><defs
   id="defs79" /><sodipodi:namedview
   id="namedview77"
   pagecolor="#505050"
   bordercolor="#eeeeee"
   borderopacity="1"
   inkscape:showpageshadow="0"
   inkscape:pageopacity="0"
   inkscape:pagecheckerboard="0"
   inkscape:deskcolor="#505050"
   showgrid="false"
   inkscape:zoom="2.4842105"
   inkscape:cx="148.53814"
   inkscape:cy="45.084746"
   inkscape:window-width="1440"
   inkscape:window-height="863"
   inkscape:window-x="0"
   inkscape:window-y="0"
   inkscape:window-maximized="1"
   inkscape:current-layer="Layer_1" />
<path
   fill="#d9d9d9"
   d="m -61.75,-24.158 7.236,81.19 32.475,9.176 32.652,-9.176 7.236,-81.19 z M 2.846,-4.919 2.315,0.199 2.14,2.315 h -24.179 v 0 h -13.944 l 0.883,10.237 h 13.237 20.295 2.824 l -0.352,2.647 -2.294,26.297 -0.176,1.766 -20.297,5.6 v 0.049 h -0.176 l -20.473,-5.646 -1.236,-15.708 h 4.588 5.293 l 0.708,7.939 11.12,3.003 0.176,-0.048 10.943,-2.952 1.236,-12.885 h -12.178 -22.415 l -2.472,-27.531 -0.176,-2.65 h 24.886 0.176 24.886 z"
   id="path18" />
<polygon
   fill="#e3e3e3"
   points="-20.268,25.137 -20.268,40.975 -9.327,38.022 -8.091,25.137 -20.268,25.137 "
   id="polygon20"
   transform="translate(-1.595,-2.525)" />
<polygon
   fill="#e3e3e3"
   points="4.618,-5.042 4.441,-2.394 3.91,2.724 3.735,4.842 -20.268,4.842 -20.268,15.077 0.027,15.077 2.851,15.077 2.499,17.724 0.205,44.022 0.029,45.788 -20.268,51.388 -20.268,61.674 6.03,54.435 12.206,-15.104 -20.268,-15.104 -20.268,-5.042 "
   id="polygon22"
   transform="translate(-1.595,-2.525)" />


</svg>
